<svg width="16" height="20" viewBox="0 0 16 20" fill="none" xmlns="http://www.w3.org/2000/svg">
<path d="M9.17157 1H5C3.11438 1 2.17157 1 1.58579 1.58579C1 2.17157 1 3.11438 1 5V15C1 16.8856 1 17.8284 1.58579 18.4142C2.17157 19 3.11438 19 5 19H11C12.8856 19 13.8284 19 14.4142 18.4142C15 17.8284 15 16.8856 15 15V6.82843C15 6.41968 15 6.2153 14.9239 6.03153C14.8478 5.84776 14.7032 5.70324 14.4142 5.41421L10.5858 1.58579C10.2968 1.29676 10.1522 1.15224 9.96847 1.07612C9.7847 1 9.58032 1 9.17157 1Z" stroke="#C2CFE0" stroke-width="1.5"/>
<path d="M9 1V5C9 5.94281 9 6.41421 9.29289 6.70711C9.58579 7 10.0572 7 11 7H15" stroke="#C2CFE0" stroke-width="1.5"/>
</svg>
