<svg width="20" height="20" viewBox="0 0 20 20" fill="none" xmlns="http://www.w3.org/2000/svg">
<g clip-path="url(#clip0_1517_2272)">
<path d="M4.99992 8.33333C4.08325 8.33333 3.33325 9.08333 3.33325 9.99999C3.33325 10.9167 4.08325 11.6667 4.99992 11.6667C5.91659 11.6667 6.66659 10.9167 6.66659 9.99999C6.66659 9.08333 5.91659 8.33333 4.99992 8.33333ZM14.9999 8.33333C14.0833 8.33333 13.3333 9.08333 13.3333 9.99999C13.3333 10.9167 14.0833 11.6667 14.9999 11.6667C15.9166 11.6667 16.6666 10.9167 16.6666 9.99999C16.6666 9.08333 15.9166 8.33333 14.9999 8.33333ZM9.99992 8.33333C9.08325 8.33333 8.33325 9.08333 8.33325 9.99999C8.33325 10.9167 9.08325 11.6667 9.99992 11.6667C10.9166 11.6667 11.6666 10.9167 11.6666 9.99999C11.6666 9.08333 10.9166 8.33333 9.99992 8.33333Z" fill="#C2CFE0"/>
</g>
<defs>
<clipPath id="clip0_1517_2272">
<rect width="20" height="20" fill="white"/>
</clipPath>
</defs>
</svg>
